<?xml version="1.0" encoding="utf-8"?>
<!-- Generator: Adobe Illustrator 15.1.0, SVG Export Plug-In . SVG Version: 6.00 Build 0)  -->
<!DOCTYPE svg PUBLIC "-//W3C//DTD SVG 1.1//EN" "http://www.w3.org/Graphics/SVG/1.1/DTD/svg11.dtd">
<svg version="1.1" id="Layer_1" xmlns="http://www.w3.org/2000/svg" xmlns:xlink="http://www.w3.org/1999/xlink" x="0px" y="0px"
  width="91.624px" height="50px" viewBox="29.167 0 91.624 50" enable-background="new 29.167 0 91.624 50" xml:space="preserve">
<path d="M102.5,50c-1.25,0-3.75-0.416-6.25-2.084c-2.084-1.25-3.75-2.916-5.416-5c-1.25-1.25-3.75-3.75-4.584-3.75
  c-0.834,0.418-1.666,2.918-1.25,5c0,0.418,0,2.5-1.25,3.75s-3.334,1.668-3.75,1.668h-5.833c-2.917,0-13.333-0.834-22.5-9.584
  C39.583,29.584,30,9.167,29.583,8.333C29.167,6.667,28.75,5,30,3.75s3.333-1.667,4.167-1.667h12.917C47.5,2.083,48.75,2.5,50,3.333
  c1.25,0.833,1.667,2.083,2.083,2.5C55,12.083,58.333,17.5,62.917,22.5c0.417-1.667,0.833-5.833,0.417-9.583
  c0-1.667-0.417-3.333-0.833-4.167c-0.417-0.417-1.25-0.833-2.083-0.833l-2.5-2.083c0-2.083,2.083-3.75,3.75-4.583
  C63.75,0.417,67.083,0,71.25,0h2.083c3.75,0,5,0.417,6.667,0.417c5,1.25,5,5.417,4.584,10.417V17.5c0,1.25,0,3.333,0.416,4.167
  c0.834-0.417,2.5-2.083,6.25-7.917C93.75,10,95.416,5.833,95.834,5c0.416-1.25,1.666-2.917,5-2.917H115c2.916,0,5,0.833,5.416,2.917
  c0.834,2.083,0.418,5.417-7.082,14.583c-1.25,1.25-2.084,2.5-2.918,3.75c-2.082,1.667-3.75,4.167-3.75,4.583
  c0,0.418,2.084,2.084,3.75,3.75c4.584,3.75,7.918,7.084,9.168,9.584c1.666,2.5,1.25,4.166,0.832,5.416
  c-1.25,2.918-5,2.918-5.832,3.334h-11.668H102.5z M86.25,34.584c2.916,0,5,2.5,7.5,5c1.666,1.666,2.916,3.332,4.584,4.166
  C100.416,45,102.5,45,102.5,45h12.084c0.416,0,1.25-0.416,1.666-0.416c0,0,0-0.418-0.416-0.418c-1.25-2.082-4.168-5.416-8.334-8.75
  c-3.75-2.916-5.416-4.582-5.834-7.082c0-2.5,1.668-4.584,5-8.75c0.834-0.833,1.668-2.083,2.918-3.333
  c4.582-5.833,5.832-8.333,6.25-9.583h-16.25c0,1.667-2.084,6.25-4.584,10c-5.834,8.75-8.334,10-10.416,10
  c-0.418,0-1.25,0-1.668-0.416C80,24.583,80,20.417,80,17.5v-1.25v-5.417C80.416,5.417,80,5.417,78.75,5s-2.084-0.417-5.833-0.417
  h-2.083c-2.083,0-4.167,0-5.833,0.417l0.833,0.833c1.667,2.083,1.667,6.25,1.667,7.083c0.417,5.417,0,12.083-2.917,13.75
  c-0.417,0-0.833,0.418-1.667,0.418c-2.5,0-5.417-2.917-10.417-10.417C50,12.083,47.917,7.5,47.917,7.5s0-0.417-0.417-0.417
  s-0.833-0.417-0.833-0.417H34.583h-0.417c1.667,3.75,10.417,20.833,20,30C62.5,44.584,72.083,45,73.75,45h5.834
  c0,0,0.832,0,0.832-0.416v-0.418c0-0.832,0-8.332,5-9.582H86.25z"/>
</svg>
