<?xml version="1.0" encoding="utf-8"?>
<!-- Generator: Adobe Illustrator 15.1.0, SVG Export Plug-In . SVG Version: 6.00 Build 0)  -->
<!DOCTYPE svg PUBLIC "-//W3C//DTD SVG 1.1//EN" "http://www.w3.org/Graphics/SVG/1.1/DTD/svg11.dtd">
<svg version="1.1" id="Layer_1" xmlns="http://www.w3.org/2000/svg" xmlns:xlink="http://www.w3.org/1999/xlink" x="0px" y="0px"
  width="27px" height="34.265px" viewBox="61.5 7.868 27 34.265" enable-background="new 61.5 7.868 27 34.265"
  xml:space="preserve">
<path fill="#666666" d="M75.137,7.868H75L61.5,9.307v24.809L75,42.133l13.5-8.018V9.307L75.137,7.868z M86.787,33.087L75,40.077
  l-11.787-6.99V22.944l11.718,6.99v1.233l-8.018-4.798v1.233L75,32.471v1.301l-8.087-4.796v1.233L75,35.005l8.154-4.865v-5.208
  l3.633-2.192V33.087z M86.719,21.437l-3.221,1.919l-1.508,0.891l-7.059-4.181v1.233l6.031,3.632h-0.069L80.757,25l-0.892,0.48
  l-5.002-2.947v1.233l3.974,2.33l-0.959,0.617l-2.947-1.783v1.233l1.988,1.167l-1.988,1.164l-11.65-6.921l11.65-6.99L86.719,21.437z
  M86.787,20.203l-11.856-6.99l-11.718,6.99v-9.319L75,9.649l11.787,1.234V20.203z"/>
</svg>
