<svg xmlns="http://www.w3.org/2000/svg" xmlns:xlink="http://www.w3.org/1999/xlink"><symbol id="icon-cat-pro" viewBox="0 0 134 56">
  <g>
    <path d="M123.1,5.8c1.2-1.9,2.7-3.4,4.5-4.6c1-0.7,1.6-0.7,2.2,0.6c0.8,1.9,1.5,3.9,0.9,6c-0.2,0.8-0.1,1.4,0.4,2.1
    c0.6,0.8,1.1,1.6,1.6,2.3c1.3,1.9,1.8,3.9,0.9,6.2c-0.4,1-0.4,2-0.2,3.1c0.2,1,0.2,2,0,3c-0.3,1.6-1.1,2.7-2.7,3.2
    c-1.3,0.3-2.4,0.9-3.2,2c-0.2,0.3-0.5,0.5-0.9,0.5c-1.2,0.2-4.2-2.5-4.2-3.7c0-0.2,0-0.4,0-0.6c0.1-3.6-0.1-3.9-3.4-5.4
    c-0.7-0.3-1.3-0.6-1.8-1.2c-0.6-0.8-1.4-0.7-2.3-0.4c-0.8,0.4-1.4,0.9-1.3,1.9c0.3,2.4,0.4,4.8,0.3,7.3c0,0.3,0.1,0.6,0.2,0.8
    c3.1,4.5,4.3,9.8,5.8,14.9c1.2,3.9,3.4,6,7.4,6.3c0.6,0,1.3,0.2,1.9,0.3c1.8,0.3,2.9,1.5,3.4,3.2c0.7,2.1,0.3,2.6-1.8,2.6
    c-2.2,0-4.3,0-6.5,0c-0.9,0-1.6-0.2-2.3-0.8c-1-1-2.2-1.4-3.4-2c-1.3-0.6-2.6-1.3-3.4-2.6c-1.1-1.7-2.6-3.1-4-4.5
    c-2.8-2.9-5.8-5.7-8.4-8.7c-1.9-2.2-3.2-4.6-3.2-7.6c0-0.9-0.2-1.3-1.2-0.9c-0.3,0.2-0.7,0.3-1,0.3c-2.8,0-4.2,1.7-5.2,4.2
    c-0.9,2.1-2.1,4.1-3.2,6.2C88.5,40.9,88,42.4,88,44c0,2.4,0.6,3.2,2.8,4c1.4,0.5,2.7,1,3.4,2.4c0.8,1.6,0.6,2-1.1,2.1
    c-2.3,0-4.5,0-6.8,0c-0.9,0-1.5-0.3-1.9-1.1c-0.6-1-1.2-2-1.8-3c-1-1.7-1.4-3.4-0.7-5.4c0.6-1.7,0.3-3.6,0.1-5.3
    c-0.4-2.6,0-4.9,1.7-7c0.6-0.7,0.6-1-0.4-1.2c-4.1-0.8-8-2.3-11.8-4.1c0,0-0.1,0-0.1-0.1c-3.2-1.2-3.8-1-4.7,2.3
    c-0.8,2.8-1.6,5.6-2.2,8.5c-0.7,3.2,0.1,6.2,1.1,9.2c0.4,1.2,1.6,1.1,2.5,1.4c2,0.6,3.7,1.4,4.5,3.5c0.7,1.6,0.6,1.8-1.1,1.8
    c-1.7,0-3.4-0.1-5.2,0c-1.6,0.1-2.8-0.5-4.2-1.4c-4.8-3.2-6.2-8.1-6.6-13.4c-0.2-3.3-2-5.9-4.1-8.4c-0.4-0.5-0.8-0.7-1.4-0.3
    c-2.1,1.3-4.5,2.1-6.7,3c-4.8,1.8-9,4.6-12.2,8.8c-1.2,1.5-1.9,3.2-2.2,5.1c-0.3,1.8,0.2,2.6,2,3.1c1.9,0.6,2.7,1.5,2.9,3.4
    c0.1,0.8-0.2,1.2-1,1.2c-2.7,0-5.4,0-8.1,0c-0.6,0-1-0.4-1.3-0.8c-1.3-1.6-1.9-3.5-1.9-5.5c-0.1-3.5,0.3-6.9,0.9-10.3
    c0.4-2.1,1.4-3.8,3.4-4.8c5.9-2.8,9-8.1,11.8-13.6c0.6-1.1,0.1-1.3-0.9-1.2c-2.9,0.3-5.4,1.6-7.7,3.2c-3,2.1-5.7,4.6-8.3,7.1
    c-2.9,2.7-6.2,4.6-10.3,4.9C3.1,32.5-0.3,28.4,0,21.8c0.1-2.3,0.9-4.4,2.4-6.1c1.2-1.3,2.6-2,4.5-1.5c1.5,0.4,1.9,1.2,1.3,2.7
    c-0.3,0.6-0.7,1.1-1,1.7c-0.4,0.6-0.8,1.3-1,2c-1.1,3,0.4,5.1,3.5,5.4c3.3,0.3,6-1.1,8.5-3.1c3-2.4,5.7-5.2,8-8.3
    c3.7-4.8,8.5-7.3,14.4-8.1c2.3-0.3,4.3-1.3,6.5-1.9c4.1-1.2,8.3-1.9,12.7-1.8c2,0.1,3.9-0.3,5.8-1.1c4.9-2,10-2,15.1-1
    c4,0.8,8,1.8,11.9,2.8c2.2,0.5,4.7,0.3,7-0.2c4.4-1,8.9-1.9,13.4-2c3-0.1,5.9,0.4,8.6,1.7C123.6,3.9,123.6,3.9,123.1,5.8z"/>
  </g>
</symbol><symbol id="icon-cat-slim" viewBox="0 0 70 97">
  <g>
    <path d="M54.8,0c-0.1,0-0.3,0-0.4,0c-0.7,0.4-1.1,0.9-1.4,1.6c-0.6,1.1-1,2.3-1.3,3.4c-0.2,0.8-0.7,1.2-1.5,1.3
    c-2.3,0.4-4,1.7-5.2,3.7c-0.7,1.3-1.3,2.6-1.8,3.9c-1.4,3.7-2.5,7.5-3.8,11.2C38.7,27,38.6,27,36.7,27c-2.3,0-2.1-0.4-2.1,2.1
    c0,0.8,0.2,1.2,1.1,1.2c0.3,0,0.7-0.1,0.8,0.2c0.1,0.3-0.2,0.5-0.4,0.7c-1.2,1.3-2.7,2-4.3,2.4c-1.9,0.5-3.8,0.9-5.7,1.5
    c-4.7,1.6-9.1,3.8-12.6,7.6c-2.1,2.3-3.5,5-4.7,7.8C5,59.2,3.2,68.3,1.8,77.5c-0.6,4.3-1.1,8.6-1.5,13C0.2,92.7,0,94.8,0,97
    c11.1,0,22.2,0,33.3,0c0.1-0.5-0.1-0.9-0.2-1.3c-0.7-1.8-2.1-2.7-3.8-3.1c-0.7-0.2-0.8-0.4-0.4-0.9c0.7-0.9,1.2-2,1.6-3.1
    c1.6-4.8,2.3-9.8,3.1-14.8C34.2,70,35.1,66.4,37,63c1.5-2.5,3.3-4.6,5.6-6.4c0.8-0.6,0.9-0.6,1,0.4c0.1,0.7,0.1,1.4,0.2,2.2
    c0.3,4.7,0.3,9.5-0.2,14.2c-0.3,3.7-0.5,7.4-0.2,11c0.4,4.3,1.2,8.4,2.2,12.6c4.4,0,8.9,0,13.3,0c-0.3-2.2-2.1-4-4.2-4.4
    c-1.3-0.2-2.5-0.1-3.8,0.2c-0.6,0.1-0.8,0-0.9-0.6c-0.4-5.3-0.1-10.6,1-15.8c1.3-6,2.4-12.1,3.1-18.2c0.3-2.5,1-4.8,2.3-7
    c1.2-2.1,2.2-4.3,3.4-6.5c0.9-1.7,1.1-3.4,0.4-5.2c-0.3-0.7-0.5-1.4-0.9-2.1c-1-2-2-3.9-2.9-5.9c-0.5-1-0.4-1.1,0.7-1.1
    c1.6,0,1.6,0,1.7-1.6c0-0.2,0-0.4,0-0.7c0-0.7-0.3-1.1-1-1c-0.5,0-1,0-1.5,0c-0.7,0-0.9-0.3-0.7-1c0.6-2.3,2.8-4.1,5.1-4.4
    c2.2-0.3,4.4,0,6.6,0.4c0.6,0.1,1,0,1.3-0.6c0.4-1,0.8-2,1.3-3c0.2-0.4,0.2-0.8-0.1-1.1C66.6,13.2,63.1,9.4,58.4,7
    c-0.5-0.3-0.8-0.6-0.9-1.1c-0.3-1.4-0.7-2.8-1.3-4.2C55.9,1,55.6,0.4,54.8,0z"/>
  </g>
</symbol><symbol id="icon-close" viewBox="0 0 18 18">
  <polygon points="18,1.3 16.7,0 9,7.7 1.3,0 0,1.3 7.7,9 0,16.7 1.3,18 9,10.3 16.7,18 18,16.7 10.3,9 "/>
</symbol><symbol id="icon-fb" viewBox="0 0 150 50">
<path d="M80.526,50H67.105V26.842h-5.263V15.263h5C66.579,10,67.368,6.316,69.737,3.684C71.842,1.316,75,0.263,78.947,0h9.211
  v11.053h-7.369c-0.263,0.526-0.525,2.105-0.525,4.21h7.895v11.579h-7.632V50z M70,47.369h7.368V23.947H85v-6.053h-7.632v-1.315
  c0-3.685,0-6.842,1.843-8.158l0.263-0.263H85V2.631h-6.053c-3.158,0.263-5.263,1.053-6.842,2.632C70,7.369,69.474,11.316,70,16.316
  l0.263,1.579h-5.526v6.053H70V47.369z"/>
</symbol><symbol id="icon-gift" viewBox="-4.415 -5.069 55 60">
<path fill="#FFFFFF" d="M47.503,7.103h-6.95c0.495-0.703,0.794-1.405,1.091-2.208c0.596-2.006,0.399-4.111-0.596-5.917
  c-0.99-1.805-2.579-3.108-4.563-3.709c-1.987-0.602-4.072-0.401-5.858,0.601c-3.574,2.006-6.154,6.116-7.545,9.024
  c-1.39-2.908-3.97-7.12-7.544-9.024C11.765-6.135,7.1-4.73,5.114-1.021c-1.39,2.708-1.191,5.816,0.497,8.123h-6.948
  c-1.688,0-3.077,1.404-3.077,3.107v9.426c0,1.705,1.39,3.108,3.077,3.108h0.893v26.171c0,3.31,2.681,6.017,5.956,6.017h35.24
  c3.275,0,5.956-2.707,5.956-6.017V22.744h0.796c1.688,0,3.076-1.405,3.076-3.108v-9.424C50.679,8.506,49.29,7.103,47.503,7.103z
  M31.816-2.123c1.292-0.701,2.681-0.803,4.072-0.4c1.289,0.4,2.382,1.303,3.076,2.607c0.695,1.303,0.795,2.708,0.397,4.111
  c-0.397,1.204-1.092,2.206-2.185,2.909H24.77C25.86,4.495,28.343-0.117,31.816-2.123z M7.199,0.083
  c1.489-2.608,4.666-3.61,7.246-2.206c3.476,1.905,5.957,6.618,7.049,9.125H8.986C6.702,5.599,5.909,2.49,7.199,0.083z M21.89,22.746
  v13.739H1.937V22.746H21.89z M1.937,48.916V38.89h20.051v13.736H5.511C3.526,52.627,1.937,50.924,1.937,48.916z M40.751,52.627
  H24.273V38.89h20.052v10.025C44.325,50.924,42.738,52.627,40.751,52.627z M44.325,36.485H24.273V22.746h20.052V36.485z
  sM48.296,19.636c0,0.401-0.297,0.702-0.695,0.702h-1.984l0,0l0,0H23.081l0,0l0,0H0.746l0,0l0,0H-1.24
  c-0.396,0-0.694-0.301-0.694-0.702v-9.425c0-0.401,0.298-0.702,0.694-0.702h48.841c0.398,0,0.695,0.301,0.695,0.702V19.636z"/>
</symbol><symbol id="icon-insta" viewBox="0 0 16.1 16">
<style type="text/css">
  .st0{fill:#231F20;}
</style>
<path class="st0" d="M11.8,1C13.6,1,15,2.4,15,4.2v7.7c0,1.7-1.4,3.1-3.1,3.1H4.2C2.4,15,1,13.6,1,11.8V4.2C1,2.4,2.4,1,4.2,1H11.8
M11.8,0H4.2C1.9,0,0,1.9,0,4.2v7.7C0,14.1,1.9,16,4.2,16h7.7c2.3,0,4.2-1.9,4.2-4.2V4.2C16,1.9,14.1,0,11.8,0z"/>
<path class="st0" d="M8,4.9c1.7,0,3.1,1.4,3.1,3.1S9.7,11.1,8,11.1S4.9,9.7,4.9,8S6.3,4.9,8,4.9 M8,3.9C5.7,3.9,3.9,5.7,3.9,8
  s1.8,4.1,4.1,4.1s4.1-1.8,4.1-4.1S10.3,3.9,8,3.9z"/>
<circle class="st0" cx="12.3" cy="3.7" r="0.9"/>
</symbol><symbol id="icon-mail-green" viewBox="0 0 65.38 50">
<path fill="#68B738" d="M60,44.62H5.38V22.31H0V50h65.38V22.31H60V44.62L60,44.62z M0,0v8.85l32.69,27.31L65.38,8.85V0H0z M60,6.15
  L32.69,28.85L5.38,6.15V5.39H60V6.15L60,6.15z"/>
</symbol><symbol id="icon-mail-red" viewBox="0 0 65.38 50">
<path fill="#FF8282" d="M60,44.62H5.38V22.31H0V50h65.38V22.31H60V44.62L60,44.62z M0,0v8.85l32.69,27.31L65.38,8.85V0H0z M60,6.15
  L32.69,28.85L5.38,6.15V5.39H60V6.15L60,6.15z"/>
</symbol><symbol id="icon-mail" viewBox="0 0 65.38 50">
<path d="M60,44.62H5.38V22.31H0V50h65.38V22.31H60V44.62L60,44.62z M0,0v8.85l32.69,27.31L65.38,8.85V0H0z M60,6.15L32.69,28.85
  L5.38,6.15V5.39H60V6.15L60,6.15z"/>
</symbol><symbol id="icon-mobile-menu" viewBox="0 0 24 18">
  <rect y="16" width="24" height="2"/>
  <rect y="8" width="24" height="2"/>
  <rect width="24" height="2"/>
</symbol><symbol id="icon-phone-green" viewBox="0 0 49.89 49.81">
<path fill="#68B738" d="M44.76,23.73H23.51v3h21.25l-5.25,5.25l2.25,2.25l7.75-7.75c0.5-0.5,0.5-1.5,0-2.25l-7.75-7.75l-2.25,2.25
  L44.76,23.73z"/>
<path fill="#68B738" d="M20.26,48.73v-15.5c0-0.75-0.75-1.5-1.5-1.5h-7.75l0,0H7.76l0,0c0,1.75,1.5,3,3,3h6.25v12.5H7.76
  c-2.5,0.25-4.5-1.75-4.75-4.25c0-0.25,0-0.25,0-0.5V7.98c0-2.5,2-4.5,4.25-4.5c0.25,0,0.25,0,0.5,0h9.25v12.5h-6c-1.75,0-3,1.5-3,3
  h11c0.75,0,1.5-0.75,1.5-1.5V1.73c-0.25-0.75-1-1.5-1.75-1.5h-11c-4-0.25-7.5,3-7.75,7.25c0,0.25,0,0.5,0,0.5v34.25
  c-0.25,4.25,3,7.75,7.25,7.75c0.25,0,0.5,0,0.5,0h11C19.51,50.23,20.26,49.48,20.26,48.73z"/>
</symbol><symbol id="icon-phone-red" viewBox="0 0 49.89 49.81">
<path fill="#FF8282" d="M44.76,23.73H23.51v3h21.25l-5.25,5.25l2.25,2.25l7.75-7.75c0.5-0.5,0.5-1.5,0-2.25l-7.75-7.75l-2.25,2.25
  L44.76,23.73z"/>
<path fill="#FF8282" d="M20.26,48.73v-15.5c0-0.75-0.75-1.5-1.5-1.5h-7.75l0,0H7.76l0,0c0,1.75,1.5,3,3,3h6.25v12.5H7.76
  c-2.5,0.25-4.5-1.75-4.75-4.25c0-0.25,0-0.25,0-0.5V7.98c0-2.5,2-4.5,4.25-4.5c0.25,0,0.25,0,0.5,0h9.25v12.5h-6c-1.75,0-3,1.5-3,3
  h11c0.75,0,1.5-0.75,1.5-1.5V1.73c-0.25-0.75-1-1.5-1.75-1.5h-11c-4-0.25-7.5,3-7.75,7.25c0,0.25,0,0.5,0,0.5v34.25
  c-0.25,4.25,3,7.75,7.25,7.75c0.25,0,0.5,0,0.5,0h11C19.51,50.23,20.26,49.48,20.26,48.73z"/>
</symbol><symbol id="icon-phone" viewBox="0 0 49.889 49.813">
<path d="M44.764,23.733h-21.25v3h21.25l-5.25,5.25l2.25,2.25l7.75-7.75c0.5-0.5,0.5-1.5,0-2.25l-7.75-7.75l-2.25,2.25L44.764,23.733
  z"/>
<path d="M20.264,48.733v-15.5c0-0.75-0.75-1.5-1.5-1.5h-7.75l0,0h-3.25l0,0c0,1.75,1.5,3,3,3h6.25v12.5h-9.25
  c-2.5,0.25-4.5-1.75-4.75-4.25c0-0.25,0-0.25,0-0.5v-34.5c0-2.5,2-4.5,4.25-4.5c0.25,0,0.25,0,0.5,0h9.25v12.5h-6c-1.75,0-3,1.5-3,3
  h11c0.75,0,1.5-0.75,1.5-1.5V1.733c-0.25-0.75-1-1.5-1.75-1.5h-11c-4-0.25-7.5,3-7.75,7.25c0,0.25,0,0.5,0,0.5v34.25
  c-0.25,4.25,3,7.75,7.25,7.75c0.25,0,0.5,0,0.5,0h11C19.514,50.233,20.264,49.483,20.264,48.733z"/>
</symbol><symbol id="icon-plus-mobile" viewBox="0 0 30 30">
  <style type="text/css">
    .st0 {
      fill: #231F20;
    }
  </style>
  <polygon class="st0" points="30,14 16,14 16,0 14,0 14,14 0,14 0,16 14,16 14,30 16,30 16,16 30,16 "/>
</symbol><symbol id="icon-plus" viewBox="-5 -5 60 60">
<polygon fill="#AAAAAA" points="55,24.5 25.5,24.5 25.5,-5 24.5,-5 24.5,24.5 -5,24.5 -5,25.5 24.5,25.5 24.5,55 25.5,55 25.5,25.5
  55,25.5 "/>
</symbol><symbol id="icon-right-arrow-long" viewBox="0 0 24.2 11">
  <style type="text/css">
    .st0 {
      fill: #3F4242;
    }
  </style>
  <polygon class="st0" points="17.6,0 24.2,5.5 17.6,11 17.6,6.6 0,6.6 0,4.4 17.6,4.4 "/>
</symbol><symbol id="icon-right-arrow-verylong" viewBox="0 0 32 11">
  <style type="text/css">
    .st0 {
      fill: #3F4242;
    }
  </style>
  <polygon class="st0" points="25.4,0 32,5.5 25.4,11 25.4,6.6 0,6.6 0,4.4 25.4,4.4 "/>
</symbol><symbol id="icon-tick" viewBox="0 0 21.1 15.5">
  <polygon points="20.1,0 7.7,13.3 1,6.1 0,7.2 7.6,15.4 7.7,15.5 21,1.2 21.1,1.1" fill="#68b738"/>
</symbol><symbol id="icon-vk" viewBox="29.167 0 91.624 50">
<path d="M102.5,50c-1.25,0-3.75-0.416-6.25-2.084c-2.084-1.25-3.75-2.916-5.416-5c-1.25-1.25-3.75-3.75-4.584-3.75
  c-0.834,0.418-1.666,2.918-1.25,5c0,0.418,0,2.5-1.25,3.75s-3.334,1.668-3.75,1.668h-5.833c-2.917,0-13.333-0.834-22.5-9.584
  C39.583,29.584,30,9.167,29.583,8.333C29.167,6.667,28.75,5,30,3.75s3.333-1.667,4.167-1.667h12.917C47.5,2.083,48.75,2.5,50,3.333
  c1.25,0.833,1.667,2.083,2.083,2.5C55,12.083,58.333,17.5,62.917,22.5c0.417-1.667,0.833-5.833,0.417-9.583
  c0-1.667-0.417-3.333-0.833-4.167c-0.417-0.417-1.25-0.833-2.083-0.833l-2.5-2.083c0-2.083,2.083-3.75,3.75-4.583
  C63.75,0.417,67.083,0,71.25,0h2.083c3.75,0,5,0.417,6.667,0.417c5,1.25,5,5.417,4.584,10.417V17.5c0,1.25,0,3.333,0.416,4.167
  c0.834-0.417,2.5-2.083,6.25-7.917C93.75,10,95.416,5.833,95.834,5c0.416-1.25,1.666-2.917,5-2.917H115c2.916,0,5,0.833,5.416,2.917
  c0.834,2.083,0.418,5.417-7.082,14.583c-1.25,1.25-2.084,2.5-2.918,3.75c-2.082,1.667-3.75,4.167-3.75,4.583
  c0,0.418,2.084,2.084,3.75,3.75c4.584,3.75,7.918,7.084,9.168,9.584c1.666,2.5,1.25,4.166,0.832,5.416
  c-1.25,2.918-5,2.918-5.832,3.334h-11.668H102.5z M86.25,34.584c2.916,0,5,2.5,7.5,5c1.666,1.666,2.916,3.332,4.584,4.166
  C100.416,45,102.5,45,102.5,45h12.084c0.416,0,1.25-0.416,1.666-0.416c0,0,0-0.418-0.416-0.418c-1.25-2.082-4.168-5.416-8.334-8.75
  c-3.75-2.916-5.416-4.582-5.834-7.082c0-2.5,1.668-4.584,5-8.75c0.834-0.833,1.668-2.083,2.918-3.333
  c4.582-5.833,5.832-8.333,6.25-9.583h-16.25c0,1.667-2.084,6.25-4.584,10c-5.834,8.75-8.334,10-10.416,10
  c-0.418,0-1.25,0-1.668-0.416C80,24.583,80,20.417,80,17.5v-1.25v-5.417C80.416,5.417,80,5.417,78.75,5s-2.084-0.417-5.833-0.417
  h-2.083c-2.083,0-4.167,0-5.833,0.417l0.833,0.833c1.667,2.083,1.667,6.25,1.667,7.083c0.417,5.417,0,12.083-2.917,13.75
  c-0.417,0-0.833,0.418-1.667,0.418c-2.5,0-5.417-2.917-10.417-10.417C50,12.083,47.917,7.5,47.917,7.5s0-0.417-0.417-0.417
  s-0.833-0.417-0.833-0.417H34.583h-0.417c1.667,3.75,10.417,20.833,20,30C62.5,44.584,72.083,45,73.75,45h5.834
  c0,0,0.832,0,0.832-0.416v-0.418c0-0.832,0-8.332,5-9.582H86.25z"/>
</symbol></svg>