<?xml version="1.0" encoding="utf-8"?>
<!-- Generator: Adobe Illustrator 15.1.0, SVG Export Plug-In . SVG Version: 6.00 Build 0)  -->
<!DOCTYPE svg PUBLIC "-//W3C//DTD SVG 1.1//EN" "http://www.w3.org/Graphics/SVG/1.1/DTD/svg11.dtd">
<svg version="1.1" id="Layer_1" xmlns="http://www.w3.org/2000/svg" xmlns:xlink="http://www.w3.org/1999/xlink" x="0px" y="0px"
  width="150px" height="50px" viewBox="0 0 150 50" enable-background="new 0 0 150 50" xml:space="preserve">
<path fill="#FFFFFF" d="M95.459,10.167h-5.834C90.041,9.583,90.291,9,90.541,8.333c0.5-1.667,0.334-3.417-0.5-4.917
  c-0.832-1.5-2.166-2.583-3.832-3.083c-1.668-0.5-3.418-0.333-4.918,0.5c-3,1.667-5.166,5.083-6.333,7.5
  c-1.167-2.417-3.333-5.917-6.333-7.5c-3.167-1.667-7.083-0.5-8.75,2.583c-1.167,2.25-1,4.833,0.417,6.75h-5.833
  c-1.417,0-2.583,1.167-2.583,2.583v7.833c0,1.417,1.167,2.583,2.583,2.583h0.75v21.75c0,2.75,2.25,5,5,5h29.583c2.75,0,5-2.25,5-5
  v-21.75h0.668c1.416,0,2.582-1.167,2.582-2.583V12.75C98.125,11.333,96.959,10.167,95.459,10.167z M82.291,2.5
  c1.084-0.583,2.25-0.667,3.418-0.333c1.082,0.333,2,1.083,2.582,2.167c0.584,1.083,0.668,2.25,0.334,3.417
  c-0.334,1-0.916,1.833-1.834,2.417H76.375C77.291,8,79.375,4.167,82.291,2.5z M61.625,4.333c1.25-2.167,3.917-3,6.083-1.833
  c2.917,1.583,5,5.5,5.917,7.583h-10.5C61.208,8.917,60.542,6.333,61.625,4.333z M73.958,23.167v11.417h-16.75V23.167H73.958z
  M57.208,44.916v-8.332h16.833V48H60.208C58.542,48,57.208,46.584,57.208,44.916z M89.791,48H75.959V36.584h16.832v8.332
  C92.791,46.584,91.459,48,89.791,48z M92.791,34.584H75.959V23.167h16.832V34.584z M96.125,20.583c0,0.333-0.25,0.583-0.584,0.583
  h-1.666l0,0l0,0H74.958l0,0l0,0h-18.75l0,0l0,0h-1.667c-0.333,0-0.583-0.25-0.583-0.583V12.75c0-0.333,0.25-0.583,0.583-0.583h41
  c0.334,0,0.584,0.25,0.584,0.583V20.583z"/>
</svg>
