<?xml version="1.0" encoding="utf-8"?>
<!-- Generator: Adobe Illustrator 15.1.0, SVG Export Plug-In . SVG Version: 6.00 Build 0)  -->
<!DOCTYPE svg PUBLIC "-//W3C//DTD SVG 1.1//EN" "http://www.w3.org/Graphics/SVG/1.1/DTD/svg11.dtd">
<svg version="1.1" id="Layer_1" xmlns="http://www.w3.org/2000/svg" xmlns:xlink="http://www.w3.org/1999/xlink" x="0px" y="0px"
  width="55px" height="60px" viewBox="-4.415 -5.069 55 60" enable-background="new -4.415 -5.069 55 60" xml:space="preserve">
<path fill="#FFFFFF" d="M47.503,7.103h-6.95c0.495-0.703,0.794-1.405,1.091-2.208c0.596-2.006,0.399-4.111-0.596-5.917
  c-0.99-1.805-2.579-3.108-4.563-3.709c-1.987-0.602-4.072-0.401-5.858,0.601c-3.574,2.006-6.154,6.116-7.545,9.024
  c-1.39-2.908-3.97-7.12-7.544-9.024C11.765-6.135,7.1-4.73,5.114-1.021c-1.39,2.708-1.191,5.816,0.497,8.123h-6.948
  c-1.688,0-3.077,1.404-3.077,3.107v9.426c0,1.705,1.39,3.108,3.077,3.108h0.893v26.171c0,3.31,2.681,6.017,5.956,6.017h35.24
  c3.275,0,5.956-2.707,5.956-6.017V22.744h0.796c1.688,0,3.076-1.405,3.076-3.108v-9.424C50.679,8.506,49.29,7.103,47.503,7.103z
  M31.816-2.123c1.292-0.701,2.681-0.803,4.072-0.4c1.289,0.4,2.382,1.303,3.076,2.607c0.695,1.303,0.795,2.708,0.397,4.111
  c-0.397,1.204-1.092,2.206-2.185,2.909H24.77C25.86,4.495,28.343-0.117,31.816-2.123z M7.199,0.083
  c1.489-2.608,4.666-3.61,7.246-2.206c3.476,1.905,5.957,6.618,7.049,9.125H8.986C6.702,5.599,5.909,2.49,7.199,0.083z M21.89,22.746
  v13.739H1.937V22.746H21.89z M1.937,48.916V38.89h20.051v13.736H5.511C3.526,52.627,1.937,50.924,1.937,48.916z M40.751,52.627
  H24.273V38.89h20.052v10.025C44.325,50.924,42.738,52.627,40.751,52.627z M44.325,36.485H24.273V22.746h20.052V36.485z
  sM48.296,19.636c0,0.401-0.297,0.702-0.695,0.702h-1.984l0,0l0,0H23.081l0,0l0,0H0.746l0,0l0,0H-1.24
  c-0.396,0-0.694-0.301-0.694-0.702v-9.425c0-0.401,0.298-0.702,0.694-0.702h48.841c0.398,0,0.695,0.301,0.695,0.702V19.636z"/>
</svg>
