<?xml version="1.0" encoding="utf-8"?>
<!-- Generator: Adobe Illustrator 15.1.0, SVG Export Plug-In . SVG Version: 6.00 Build 0)  -->
<!DOCTYPE svg PUBLIC "-//W3C//DTD SVG 1.1//EN" "http://www.w3.org/Graphics/SVG/1.1/DTD/svg11.dtd">
<svg version="1.1" id="Layer_1" xmlns="http://www.w3.org/2000/svg" xmlns:xlink="http://www.w3.org/1999/xlink" x="0px" y="0px"
  width="49.89px" height="49.81px" viewBox="0 0 49.89 49.81" enable-background="new 0 0 49.89 49.81" xml:space="preserve">
<path fill="#68B738" d="M44.76,23.73H23.51v3h21.25l-5.25,5.25l2.25,2.25l7.75-7.75c0.5-0.5,0.5-1.5,0-2.25l-7.75-7.75l-2.25,2.25
  L44.76,23.73z"/>
<path fill="#68B738" d="M20.26,48.73v-15.5c0-0.75-0.75-1.5-1.5-1.5h-7.75l0,0H7.76l0,0c0,1.75,1.5,3,3,3h6.25v12.5H7.76
  c-2.5,0.25-4.5-1.75-4.75-4.25c0-0.25,0-0.25,0-0.5V7.98c0-2.5,2-4.5,4.25-4.5c0.25,0,0.25,0,0.5,0h9.25v12.5h-6c-1.75,0-3,1.5-3,3
  h11c0.75,0,1.5-0.75,1.5-1.5V1.73c-0.25-0.75-1-1.5-1.75-1.5h-11c-4-0.25-7.5,3-7.75,7.25c0,0.25,0,0.5,0,0.5v34.25
  c-0.25,4.25,3,7.75,7.25,7.75c0.25,0,0.5,0,0.5,0h11C19.51,50.23,20.26,49.48,20.26,48.73z"/>
</svg>
