<?xml version="1.0" encoding="utf-8"?>
<!-- Generator: Adobe Illustrator 15.1.0, SVG Export Plug-In . SVG Version: 6.00 Build 0)  -->
<!DOCTYPE svg PUBLIC "-//W3C//DTD SVG 1.1//EN" "http://www.w3.org/Graphics/SVG/1.1/DTD/svg11.dtd">
<svg version="1.1" id="Layer_1" xmlns="http://www.w3.org/2000/svg" xmlns:xlink="http://www.w3.org/1999/xlink" x="0px" y="0px"
  width="49.889px" height="49.813px" viewBox="0 0 49.889 49.813" enable-background="new 0 0 49.889 49.813" xml:space="preserve">
<path d="M44.764,23.733h-21.25v3h21.25l-5.25,5.25l2.25,2.25l7.75-7.75c0.5-0.5,0.5-1.5,0-2.25l-7.75-7.75l-2.25,2.25L44.764,23.733
  z"/>
<path d="M20.264,48.733v-15.5c0-0.75-0.75-1.5-1.5-1.5h-7.75l0,0h-3.25l0,0c0,1.75,1.5,3,3,3h6.25v12.5h-9.25
  c-2.5,0.25-4.5-1.75-4.75-4.25c0-0.25,0-0.25,0-0.5v-34.5c0-2.5,2-4.5,4.25-4.5c0.25,0,0.25,0,0.5,0h9.25v12.5h-6c-1.75,0-3,1.5-3,3
  h11c0.75,0,1.5-0.75,1.5-1.5V1.733c-0.25-0.75-1-1.5-1.75-1.5h-11c-4-0.25-7.5,3-7.75,7.25c0,0.25,0,0.5,0,0.5v34.25
  c-0.25,4.25,3,7.75,7.25,7.75c0.25,0,0.5,0,0.5,0h11C19.514,50.233,20.264,49.483,20.264,48.733z"/>
</svg>
