<?xml version="1.0" encoding="utf-8"?>
<!-- Generator: Adobe Illustrator 15.1.0, SVG Export Plug-In . SVG Version: 6.00 Build 0)  -->
<!DOCTYPE svg PUBLIC "-//W3C//DTD SVG 1.1//EN" "http://www.w3.org/Graphics/SVG/1.1/DTD/svg11.dtd">
<svg version="1.1" id="Layer_1" xmlns="http://www.w3.org/2000/svg" xmlns:xlink="http://www.w3.org/1999/xlink" x="0px" y="0px"
  width="49.889px" height="49.813px" viewBox="49.986 -0.014 49.889 49.813" enable-background="new 49.986 -0.014 49.889 49.813"
  xml:space="preserve">
<path d="M94.75,23.5H73.5v3h21.25l-5.25,5.25L91.75,34l7.75-7.75c0.5-0.5,0.5-1.5,0-2.25l-7.75-7.75L89.5,18.5L94.75,23.5z"/>
<path d="M70.25,48.5V33c0-0.75-0.75-1.5-1.5-1.5H61l0,0h-3.25l0,0c0,1.75,1.5,3,3,3H67V47h-9.25c-2.5,0.25-4.5-1.75-4.75-4.25
  c0-0.25,0-0.25,0-0.5V7.75c0-2.5,2-4.5,4.25-4.5c0.25,0,0.25,0,0.5,0H67v12.5h-6c-1.75,0-3,1.5-3,3h11c0.75,0,1.5-0.75,1.5-1.5V1.5
  c-0.25-0.75-1-1.5-1.75-1.5h-11c-4-0.25-7.5,3-7.75,7.25c0,0.25,0,0.5,0,0.5V42c-0.25,4.25,3,7.75,7.25,7.75c0.25,0,0.5,0,0.5,0h11
  C69.5,50,70.25,49.25,70.25,48.5z"/>
</svg>
