<?xml version="1.0" encoding="utf-8"?>
<!-- Generator: Adobe Illustrator 15.1.0, SVG Export Plug-In . SVG Version: 6.00 Build 0)  -->
<!DOCTYPE svg PUBLIC "-//W3C//DTD SVG 1.1//EN" "http://www.w3.org/Graphics/SVG/1.1/DTD/svg11.dtd">
<svg version="1.1" id="Layer_1" xmlns="http://www.w3.org/2000/svg" xmlns:xlink="http://www.w3.org/1999/xlink" x="0px" y="0px"
  width="150px" height="27.582px" viewBox="0 0 150 27.582" enable-background="new 0 0 150 27.582" xml:space="preserve">
<g>
  <path fill="#111111" d="M1.878,25.234C0.704,23.709,0,21.479,0,18.662V8.92C0,5.985,0.587,3.756,1.761,2.23
    C3.052,0.705,5.047,0,7.982,0c2.817,0,4.812,0.704,5.986,1.995c1.173,1.292,1.76,3.287,1.76,5.75v2.348H9.977V7.395
    c0-1.057-0.117-1.878-0.352-2.348C9.39,4.578,8.921,4.107,7.982,4.107c-0.822,0-1.409,0.234-1.644,0.822
    C6.104,5.517,5.986,6.455,5.986,7.512V20.07c0,1.057,0.118,1.878,0.47,2.465c0.234,0.588,0.821,0.822,1.643,0.822
    c0.822,0,1.291-0.234,1.526-0.822c0.235-0.587,0.352-1.408,0.352-2.465v-2.816h5.751v2.349c0,2.465-0.587,4.459-1.76,5.868
    c-1.174,1.408-3.169,2.111-5.986,2.111C5.164,27.465,3.052,26.76,1.878,25.234z"/>
  <path fill="#111111" d="M22.652,0.353h6.69l4.93,26.761h-5.399l-0.939-5.635h-3.873l-0.939,5.635h-5.517L22.652,0.353z
    M27.465,17.957L26.056,7.512l-1.408,10.445H27.465z"/>
  <path fill="#111111" d="M38.38,4.813h-3.99v-4.46h13.967v4.343h-3.991v22.418H38.38V4.813z"/>
  <path fill="#111111" d="M59.038,0.353h10.329V3.17h-6.69v8.803h5.399v2.699h-5.399v9.859h6.69v2.699H58.92V0.353H59.038z"/>
  <path fill="#111111" d="M72.418,0.353H75l7.629,17.723V0.353h3.053v26.761h-2.348L75.587,8.803v18.311h-3.169V0.353z"/>
  <path fill="#111111" d="M89.201,0.353h10.328V3.17H92.84v8.803h5.398v2.699H92.84v9.859h6.689v2.699H89.201V0.353z"/>
  <path fill="#111111" d="M102.582,0.353h5.398c2.699,0,4.694,0.587,5.985,1.643c1.291,1.057,1.88,2.934,1.88,5.399
    c0,3.404-1.058,5.516-3.287,6.221l3.756,13.381h-3.64l-3.521-12.56h-2.934v12.56h-3.757V0.353H102.582z M107.746,11.854
    c1.645,0,2.699-0.353,3.404-0.938c0.703-0.588,1.057-1.762,1.057-3.521c0-1.057-0.117-1.996-0.354-2.583
    c-0.234-0.586-0.703-1.056-1.291-1.408c-0.586-0.353-1.525-0.47-2.582-0.47h-1.644v8.803h1.408L107.746,11.854L107.746,11.854z"/>
  <path fill="#111111" d="M120.54,25.117c-1.058-1.525-1.644-3.756-1.644-6.807V9.39c0-2.113,0.233-3.757,0.586-5.048
    c0.471-1.291,1.175-2.347,2.229-3.051c1.058-0.704,2.465-1.056,4.345-1.056c2.465,0,4.225,0.587,5.28,1.878
    s1.644,3.169,1.644,5.869V8.92h-3.521V8.099c0-1.291-0.117-2.229-0.233-2.935c-0.119-0.705-0.471-1.174-0.939-1.525
    s-1.173-0.588-2.229-0.588c-1.057,0-1.762,0.236-2.349,0.705c-0.587,0.47-0.821,1.056-0.938,1.877
    c-0.117,0.822-0.234,1.879-0.234,3.17v9.977c0,1.996,0.234,3.521,0.704,4.46s1.409,1.292,2.817,1.292
    c1.407,0,2.348-0.471,2.815-1.408c0.47-0.938,0.821-2.466,0.821-4.695v-1.879h-3.403v-2.698h6.808v13.264h-2.348l-0.354-3.053
    c-0.819,2.229-2.465,3.403-4.812,3.403C123.357,27.465,121.596,26.643,120.54,25.117z"/>
  <path fill="#111111" d="M140.609,17.723l-5.75-17.253h3.521l4.106,12.912l3.99-12.912H150l-5.751,17.253v9.391h-3.521v-9.391
    H140.609z"/>
</g>
</svg>
