<?xml version="1.0" encoding="utf-8"?>
<!-- Generator: Adobe Illustrator 15.1.0, SVG Export Plug-In . SVG Version: 6.00 Build 0)  -->
<!DOCTYPE svg PUBLIC "-//W3C//DTD SVG 1.1//EN" "http://www.w3.org/Graphics/SVG/1.1/DTD/svg11.dtd">
<svg version="1.1" id="Layer_1" xmlns="http://www.w3.org/2000/svg" xmlns:xlink="http://www.w3.org/1999/xlink" x="0px" y="0px"
  width="150px" height="27.582px" viewBox="0 11.268 150 27.582" enable-background="new 0 11.268 150 27.582" xml:space="preserve"
  >
<g>
  <path fill="#111111" d="M1.878,36.502C0.704,34.977,0,32.746,0,29.93v-9.742c0-2.935,0.587-5.165,1.761-6.69
    c1.291-1.526,3.286-2.23,6.221-2.23c2.817,0,4.812,0.704,5.986,1.995c1.173,1.292,1.76,3.287,1.76,5.751v2.347H9.977v-2.699
    c0-1.057-0.117-1.878-0.352-2.348c-0.235-0.469-0.704-0.939-1.643-0.939c-0.822,0-1.409,0.235-1.644,0.822
    c-0.234,0.587-0.352,1.526-0.352,2.582v12.559c0,1.057,0.118,1.878,0.47,2.465c0.234,0.587,0.821,0.822,1.643,0.822
    s1.291-0.235,1.526-0.822s0.352-1.408,0.352-2.465v-2.816h5.751v2.348c0,2.465-0.587,4.459-1.76,5.868
    c-1.174,1.408-3.169,2.112-5.986,2.112C5.164,38.732,3.052,38.028,1.878,36.502z"/>
  <path fill="#111111" d="M22.652,11.62h6.69l4.93,26.761h-5.399l-0.939-5.635h-3.873l-0.939,5.635h-5.517L22.652,11.62z
  M27.465,29.225l-1.409-10.445l-1.408,10.445H27.465z"/>
  <path fill="#111111" d="M38.38,16.08H34.39v-4.46h13.967v4.343h-3.991v22.418H38.38V16.08z"/>
  <path fill="#111111" d="M59.038,11.62h10.329v2.817h-6.69v8.803h5.399v2.7h-5.399v9.859h6.69v2.699H58.92V11.62H59.038z"/>
  <path fill="#111111" d="M72.418,11.62H75l7.629,17.723V11.62h3.052v26.761h-2.347L75.587,20.07v18.311h-3.169V11.62z"/>
  <path fill="#111111" d="M89.201,11.62H99.53v2.817h-6.69v8.803h5.399v2.7H92.84v9.859h6.69v2.699H89.201V11.62z"/>
  <path fill="#111111" d="M102.582,11.62h5.399c2.699,0,4.694,0.587,5.985,1.643c1.291,1.057,1.879,2.935,1.879,5.399
    c0,3.404-1.057,5.516-3.287,6.221l3.756,13.38h-3.639l-3.521-12.559h-2.934v12.559h-3.756V11.62H102.582z M107.746,23.122
    c1.644,0,2.699-0.352,3.404-0.939c0.704-0.587,1.057-1.761,1.057-3.521c0-1.057-0.117-1.996-0.353-2.583
    c-0.235-0.586-0.704-1.056-1.291-1.408s-1.526-0.47-2.582-0.47h-1.644v8.803h1.408V23.122z"/>
  <path fill="#111111" d="M120.54,36.385c-1.057-1.525-1.644-3.756-1.644-6.807v-8.921c0-2.113,0.234-3.756,0.587-5.047
    c0.47-1.291,1.174-2.348,2.229-3.052c1.057-0.704,2.465-1.056,4.344-1.056c2.465,0,4.225,0.587,5.281,1.878
    s1.644,3.169,1.644,5.869v0.939h-3.521v-0.822c0-1.291-0.117-2.23-0.234-2.934c-0.118-0.705-0.47-1.174-0.939-1.526
    s-1.173-0.587-2.229-0.587s-1.761,0.235-2.348,0.704c-0.587,0.47-0.822,1.056-0.939,1.878s-0.234,1.878-0.234,3.169v9.977
    c0,1.996,0.234,3.521,0.704,4.46s1.409,1.292,2.817,1.292s2.348-0.471,2.816-1.409c0.47-0.938,0.822-2.465,0.822-4.694v-1.879
    h-3.404v-2.699h6.808v13.264h-2.348l-0.353-3.053c-0.82,2.23-2.465,3.404-4.812,3.404C123.357,38.732,121.596,37.91,120.54,36.385z
    "/>
  <path fill="#111111" d="M140.61,28.99l-5.751-17.253h3.521l4.107,12.911l3.99-12.911H150l-5.751,17.253v9.391h-3.521V28.99H140.61z
    "/>
</g>
</svg>
