<?xml version="1.0" encoding="utf-8"?>
<!-- Generator: Adobe Illustrator 15.1.0, SVG Export Plug-In . SVG Version: 6.00 Build 0)  -->
<!DOCTYPE svg PUBLIC "-//W3C//DTD SVG 1.1//EN" "http://www.w3.org/Graphics/SVG/1.1/DTD/svg11.dtd">
<svg version="1.1" id="Layer_2" xmlns="http://www.w3.org/2000/svg" xmlns:xlink="http://www.w3.org/1999/xlink" x="0px" y="0px"
width="150px" height="50px" viewBox="0 0 150 50" enable-background="new 0 0 150 50" xml:space="preserve">
<g>
  <path fill="#FDC305" d="M4.806,26.498l0.079-1.812c5.278-0.709,10.557-1.103,15.914-1.024c0,0.473,0,0.945-0.079,1.418
    c0,0,2.285-1.024,4.727-1.418c-1.891-4.963-6.696-8.509-12.29-8.509c-6.539,0-11.975,4.806-12.999,11.108
    C1.891,26.34,4.806,26.498,4.806,26.498z"/>
  <path fill="#FDC305" d="M21.429,29.256c-0.945,1.023-1.103,0.945-1.103,2.757c0,0.709,0,3.86,0,7.248
    c3.545-2.363,5.83-6.382,5.83-10.95c0-0.867-0.079-1.654-0.236-2.443C24.58,26.734,22.216,28.389,21.429,29.256z"/>
  <path fill="#FDC305" d="M5.042,30.438c0,0-2.994-1.104-4.097-1.418C0.63,28.94,0.315,28.861,0,28.783
    c0.158,4.727,2.915,8.902,6.854,11.029L5.042,30.438z"/>
</g>
<path fill="#F06351" d="M20.72,23.662c0.079-6.697-1.103-12.999-1.103-12.999s-0.158-0.945-0.709-0.158
  c-0.552,0.867-0.945,3.073-0.945,3.073c-5.83-0.315-10.084,0.236-10.084,0.236c-0.63-2.048-1.654-2.994-2.206-2.836
  c-0.552,0.236-0.552,2.679-0.552,2.679L4.806,24.765C10.084,23.977,15.441,23.662,20.72,23.662z"/>
<path d="M9.769,21.22c0-0.079,0.788,0.551,1.103,0.709c0.315,0.158,0.473,0.315,0.473,0.473s-0.236,0.236-0.473,0.236
  s-0.709-0.079-0.788-0.236c0,0,0.473,0,0.709,0h0.236C11.108,22.48,10.005,21.614,9.769,21.22z"/>
<path d="M15.678,21.298c0,0-0.788,1.024-0.867,1.024c0,0.079-0.158,0.236,0.157,0.236c0.315,0,0.867-0.158,0.946-0.236
  c0.079-0.079,0.079-0.158-0.079-0.158c-0.157,0-0.551,0-0.788,0.079L15.678,21.298C15.678,21.298,15.756,21.22,15.678,21.298z"/>
<path d="M13.235,26.104c0,0,0.63-0.314,0.867-0.787c0.236-0.551,0-0.709-0.315-0.788c-0.394-0.079-1.024,0-1.339,0.237
  c-0.315,0.315-0.236,0.551-0.079,0.788C12.526,25.711,12.999,26.025,13.235,26.104z"/>
<path fill="#F06351" d="M12.841,27.129c0,0-0.158,0.314-0.394,0.473c-0.157,0.157-0.473,0.314-0.788,0.314
  c-0.473,0-0.867-0.157-1.182-0.314c-0.158-0.079-0.315-0.236-0.394-0.316c-0.158-0.156-0.315-0.236-0.315-0.236
  s0.551,3.23,2.048,3.703c1.418,0.473,1.654-0.551,1.733-0.866c0-0.236,0-1.654-0.63-2.521C12.999,27.049,12.92,27.207,12.841,27.129
  z"/>
<g>
  <path d="M11.581,27.995L11.581,27.995c-1.024,0-1.812-1.103-1.812-1.103c0-0.08,0-0.158,0-0.158c0.079,0,0.157,0,0.157,0
    s0.788,1.024,1.655,1.024l0,0c0.473,0,0.866-0.236,1.26-0.788l0.079-0.158l0.079,0.158c0,0,0.315,0.631,0.788,0.631
    c0.394,0,0.867-0.316,1.261-1.025c0-0.078,0.079-0.078,0.158,0c0.079,0,0.079,0.08,0,0.158c-0.473,0.788-1.024,1.104-1.497,1.104
    s-0.709-0.395-0.867-0.631C12.526,27.759,12.054,27.995,11.581,27.995z"/>
</g>
<path fill="#F06351" d="M20.641,25.08c0,0-1.969,1.732-4.018,4.097c-2.048,2.363-4.097,3.86-4.097,3.86
  c-0.158-0.395-1.261-1.182-1.261-1.182s-2.442-1.654-4.097-2.994c-0.945-0.787-1.812-1.732-2.442-2.363
  c-0.236,0-0.867-0.078-1.576-0.078c3.703,5.514,9.454,6.932,9.454,6.932c0.709-0.078,2.6-1.496,4.018-2.6
  c1.418-1.103,3.781-3.545,4.648-4.648c0.473-0.551,0.709-1.102,0.867-1.575C21.271,24.844,20.641,25.08,20.641,25.08z"/>
<g transform="matrix(1, 0, 0, 1, 90, 10.200001)">
  <path fill="#111111" d="M-18.151,21.104c-0.63-0.788-0.945-1.97-0.945-3.466v-4.964c0-1.497,0.315-2.678,0.945-3.466
    c0.63-0.788,1.733-1.182,3.309-1.182c1.497,0,2.521,0.315,3.151,1.024c0.631,0.709,0.945,1.655,0.945,2.994v1.182h-3.15v-1.418
    c0-0.551-0.08-0.945-0.158-1.26c-0.078-0.236-0.395-0.394-0.788-0.394c-0.394,0-0.788,0.158-0.867,0.473
    c-0.158,0.315-0.236,0.709-0.236,1.261v6.539c0,0.552,0.079,0.945,0.236,1.261s0.394,0.473,0.867,0.473
    c0.393,0,0.709-0.157,0.788-0.473c0.158-0.315,0.158-0.709,0.158-1.261v-1.418h3.072v1.182c0,1.261-0.315,2.285-0.945,3.072
    c-0.631,0.709-1.654,1.104-3.152,1.104C-16.418,22.285-17.521,21.892-18.151,21.104z"/>
  <path fill="#111111" d="M-7.122,8.184h3.546l2.6,13.865h-2.836l-0.473-2.915h-2.049l-0.473,2.915h-2.915L-7.122,8.184z
  M-4.602,17.322l-0.709-5.436l-0.709,5.436H-4.602z"/>
  <path fill="#111111" d="M1.229,10.468h-2.127V8.184h7.327v2.285H4.301v11.581H1.15V10.468H1.229z"/>
  <path fill="#111111" d="M12.021,8.184h5.437v1.418h-3.466v4.569h2.836v1.34h-2.836v5.041h3.545v1.418h-5.516V8.184z"/>
  <path fill="#111111" d="M19.112,8.184h1.339l4.019,9.218V8.184h1.654v13.865h-1.261l-4.018-9.454v9.454h-1.654V8.184H19.112z"/>
  <path fill="#111111" d="M28.015,8.184h5.437v1.418h-3.467v4.569h2.836v1.34h-2.836v5.041h3.545v1.418h-5.515V8.184z"/>
  <path fill="#111111" d="M35.105,8.184h2.836c1.418,0,2.441,0.315,3.15,0.866c0.709,0.552,1.025,1.497,1.025,2.836
    c0,1.812-0.553,2.836-1.734,3.23l1.971,6.933h-1.891l-1.813-6.538h-1.497v6.538h-1.97V8.184H35.105z M37.783,14.171
    c0.867,0,1.418-0.158,1.813-0.473c0.394-0.315,0.551-0.945,0.551-1.812c0-0.552-0.078-1.024-0.157-1.339s-0.315-0.551-0.709-0.709
    c-0.315-0.158-0.788-0.236-1.339-0.236h-0.867v4.569H37.783z"/>
  <path fill="#111111" d="M44.559,21.025c-0.551-0.787-0.866-1.969-0.866-3.545V12.91c0-1.103,0.079-1.969,0.315-2.678
    c0.236-0.709,0.63-1.182,1.182-1.576c0.551-0.394,1.339-0.552,2.284-0.552c1.261,0,2.206,0.315,2.837,0.945
    c0.551,0.63,0.865,1.655,0.865,3.073v0.551h-1.812v-0.473c0-0.63-0.079-1.182-0.157-1.497c-0.079-0.394-0.236-0.63-0.552-0.788
    c-0.236-0.236-0.63-0.315-1.103-0.315c-0.552,0-0.945,0.157-1.182,0.394c-0.236,0.236-0.473,0.551-0.552,0.945
    c-0.079,0.394-0.079,0.945-0.079,1.654v5.121c0,1.024,0.158,1.813,0.395,2.285s0.787,0.709,1.496,0.709s1.261-0.236,1.497-0.788
    c0.236-0.473,0.394-1.339,0.394-2.442v-0.945H47.71v-1.339h3.546v6.854h-1.262l-0.156-1.575c-0.474,1.182-1.262,1.732-2.521,1.732
    C46.056,22.206,45.11,21.813,44.559,21.025z"/>
  <path fill="#111111" d="M55.194,17.165l-3.072-8.981h1.812l2.127,6.696l2.127-6.696H60l-2.994,8.981v4.884h-1.891v-4.884H55.194z"
    />
</g>
</svg>
