<?xml version="1.0" encoding="utf-8"?>
    <svg version="1.1" id="Layer_1" xmlns="http://www.w3.org/2000/svg" xmlns:xlink="http://www.w3.org/1999/xlink">
      <symbol id="icon-insta" viewBox="0 0 16.1 16">
        <path class="st0" d="M11.8,1C13.6,1,15,2.4,15,4.2v7.7c0,1.7-1.4,3.1-3.1,3.1H4.2C2.4,15,1,13.6,1,11.8V4.2C1,2.4,2.4,1,4.2,1H11.8
        M11.8,0H4.2C1.9,0,0,1.9,0,4.2v7.7C0,14.1,1.9,16,4.2,16h7.7c2.3,0,4.2-1.9,4.2-4.2V4.2C16,1.9,14.1,0,11.8,0z"/>
        <path class="st0" d="M8,4.9c1.7,0,3.1,1.4,3.1,3.1S9.7,11.1,8,11.1S4.9,9.7,4.9,8S6.3,4.9,8,4.9 M8,3.9C5.7,3.9,3.9,5.7,3.9,8
          s1.8,4.1,4.1,4.1s4.1-1.8,4.1-4.1S10.3,3.9,8,3.9z"/>
        <circle class="st0" cx="12.3" cy="3.7" r="0.9"/>
      </symbol>
      <symbol id="icon-vk" viewBox="0 0 22 12">
        <path d="M17.6,12c-0.3,0-0.9-0.1-1.5-0.5c-0.5-0.3-0.9-0.7-1.3-1.2c-0.3-0.3-0.9-0.9-1.1-0.9c-0.2,0.1-0.4,0.7-0.3,1.2
        c0,0.1,0,0.6-0.3,0.9c-0.3,0.3-0.8,0.4-0.9,0.4h-1.4c-0.7,0-3.2-0.2-5.4-2.3C2.5,7.1,0.2,2.2,0.1,2C0,1.6-0.1,1.2,0.2,0.9
        s0.8-0.4,1-0.4h3.1c0.1,0,0.4,0.1,0.7,0.3C5.3,1,5.4,1.3,5.5,1.4c0.7,1.5,1.5,2.8,2.6,4C8.2,5,8.3,4,8.2,3.1c0-0.4-0.1-0.8-0.2-1
        C7.9,2,7.7,1.9,7.5,1.9L6.9,1.4c0-0.5,0.5-0.9,0.9-1.1C8.3,0.1,9.1,0,10.1,0h0.5c0.9,0,1.2,0.1,1.6,0.1c1.2,0.3,1.2,1.3,1.1,2.5v1.6
        c0,0.3,0,0.8,0.1,1c0.2-0.1,0.6-0.5,1.5-1.9c0.6-0.9,1-1.9,1.1-2.1c0.1-0.3,0.4-0.7,1.2-0.7h3.4c0.7,0,1.2,0.2,1.3,0.7
        c0.2,0.5,0.1,1.3-1.7,3.5c-0.3,0.3-0.5,0.6-0.7,0.9c-0.5,0.4-0.9,1-0.9,1.1s0.5,0.5,0.9,0.9c1.1,0.9,1.9,1.7,2.2,2.3
        c0.4,0.6,0.3,1,0.2,1.3c-0.3,0.7-1.2,0.7-1.4,0.8h-2.8C17.7,12,17.6,12,17.6,12z M13.7,8.3c0.7,0,1.2,0.6,1.8,1.2
        c0.4,0.4,0.7,0.8,1.1,1c0.5,0.3,1,0.3,1,0.3h2.9c0.1,0,0.3-0.1,0.4-0.1c0,0,0-0.1-0.1-0.1c-0.3-0.5-1-1.3-2-2.1
        c-0.9-0.7-1.3-1.1-1.4-1.7c0-0.6,0.4-1.1,1.2-2.1c0.2-0.2,0.4-0.5,0.7-0.8c1.1-1.4,1.4-2,1.5-2.3h-3.9c0,0.4-0.5,1.5-1.1,2.4
        c-1.4,2.1-2,2.4-2.5,2.4c-0.1,0-0.3,0-0.4-0.1c-0.7-0.4-0.7-1.4-0.7-2.1V3.9V2.6c0.1-1.3,0-1.3-0.3-1.4c-0.3-0.1-0.5-0.1-1.4-0.1H10
        c-0.5,0-1,0-1.4,0.1l0.2,0.2c0.4,0.5,0.4,1.5,0.4,1.7c0.1,1.3,0,2.9-0.7,3.3c-0.1,0-0.2,0.1-0.4,0.1C7.5,6.5,6.8,5.8,5.6,4
        C5,2.9,4.5,1.8,4.5,1.8s0-0.1-0.1-0.1S4.2,1.6,4.2,1.6H1.3H1.2c0.4,0.9,2.5,5,4.8,7.2c2,1.9,4.3,2,4.7,2h1.4c0,0,0.2,0,0.2-0.1v-0.1
        c0-0.2,0-2,1.2-2.3C13.5,8.3,13.7,8.3,13.7,8.3z"/>
      </symbol>
      <symbol id="icon-fb" viewBox="0 0 150 50">
        <path d="M80.526,50H67.105V26.842h-5.263V15.263h5C66.579,10,67.368,6.316,69.737,3.684C71.842,1.316,75,0.263,78.947,0h9.211
        v11.053h-7.369c-0.263,0.526-0.525,2.105-0.525,4.21h7.895v11.579h-7.632V50z M70,47.369h7.368V23.947H85v-6.053h-7.632v-1.315
        c0-3.685,0-6.842,1.843-8.158l0.263-0.263H85V2.631h-6.053c-3.158,0.263-5.263,1.053-6.842,2.632C70,7.369,69.474,11.316,70,16.316
        l0.263,1.579h-5.526v6.053H70V47.369z"/>
      </symbol>
      <symbol id="html-academy" viewBox="58.583 4.167 32.833 41.667">
        <path fill="#2E368F" d="M75.167,4.167H75l-16.417,1.75v30.167L75,45.834l16.416-9.75V5.917L75.167,4.167z M89.334,34.834L75,43.334 l-14.333-8.5V22.5l14.25,8.5v1.5l-9.75-5.834v1.5L75,34.084v1.582l-9.833-5.832v1.5L75,37.166l9.916-5.916v-6.333l4.418-2.667
        V34.834z M89.25,20.667L85.334,23L83.5,24.083L74.917,19v1.5l7.333,4.417h-0.084L82,25l-1.084,0.584L74.833,22v1.5l4.833,2.834
        l-1.166,0.75l-3.583-2.167v1.5l2.417,1.418l-2.417,1.416L60.75,20.833l14.167-8.5L89.25,20.667z M89.334,19.167l-14.417-8.5
        l-14.25,8.5V7.833L75,6.333l14.334,1.5V19.167z"/>
      </symbol>
</svg>


    </svg>
