<?xml version="1.0" encoding="utf-8"?>
<!-- Generator: Adobe Illustrator 15.1.0, SVG Export Plug-In . SVG Version: 6.00 Build 0)  -->
<!DOCTYPE svg PUBLIC "-//W3C//DTD SVG 1.1//EN" "http://www.w3.org/Graphics/SVG/1.1/DTD/svg11.dtd">
<svg version="1.1" id="Layer_1" xmlns="http://www.w3.org/2000/svg" xmlns:xlink="http://www.w3.org/1999/xlink" x="0px" y="0px"
  width="32.833px" height="41.667px" viewBox="0 0 32.833 41.667" enable-background="new 0 0 32.833 41.667" xml:space="preserve">
<path fill="#2E368F" d="M16.583,0.001h-0.166L0,1.751v30.167l16.418,9.75l16.416-9.75V1.751L16.583,0.001z M30.751,30.667
  l-14.334,8.5l-14.334-8.5V18.333l14.25,8.5v1.5L6.583,22.5V24l9.834,5.918V31.5l-9.834-5.832v1.5L16.417,33l9.916-5.916v-6.332
  l4.418-2.668V30.667z M30.667,16.501l-3.916,2.333l-1.834,1.084l-8.584-5.083v1.5l7.334,4.417h-0.084l-0.166,0.082l-1.084,0.584
  l-6.084-3.584v1.5l4.834,2.834l-1.166,0.75l-3.584-2.166v1.5l2.418,1.418l-2.418,1.416L2.167,16.667l14.166-8.5L30.667,16.501z
  M30.751,15.001l-14.418-8.5l-14.25,8.5V3.667l14.334-1.5l14.334,1.5V15.001z"/>
</svg>
