<?xml version="1.0" encoding="utf-8"?>
  <!-- Generator: Adobe Illustrator 15.1.0, SVG Export Plug-In . SVG Version: 6.00 Build 0)  -->
<!DOCTYPE svg PUBLIC "-//W3C//DTD SVG 1.1//EN" "http://www.w3.org/Graphics/SVG/1.1/DTD/svg11.dtd">
<svg version="1.1" id="Layer_1" xmlns="http://www.w3.org/2000/svg" xmlns:xlink="http://www.w3.org/1999/xlink" x="0px" y="0px" width="32.833px" height="41.667px" viewBox="58.583 4.167 32.833 41.667" enable-background="new 58.583 4.167 32.833 41.667" xml:space="preserve">
  <path fill="#2E368F" d="M75.167,4.167H75l-16.417,1.75v30.167L75,45.834l16.416-9.75V5.917L75.167,4.167z M89.334,34.834L75,43.334
  l-14.333-8.5V22.5l14.25,8.5v1.5l-9.75-5.834v1.5L75,34.084v1.582l-9.833-5.832v1.5L75,37.166l9.916-5.916v-6.333l4.418-2.667
  V34.834z M89.25,20.667L85.334,23L83.5,24.083L74.917,19v1.5l7.333,4.417h-0.084L82,25l-1.084,0.584L74.833,22v1.5l4.833,2.834
  l-1.166,0.75l-3.583-2.167v1.5l2.417,1.418l-2.417,1.416L60.75,20.833l14.167-8.5L89.25,20.667z M89.334,19.167l-14.417-8.5
  l-14.25,8.5V7.833L75,6.333l14.334,1.5V19.167z"/>
</svg>
