<?xml version="1.0" encoding="utf-8"?>
<!-- Generator: Adobe Illustrator 15.1.0, SVG Export Plug-In . SVG Version: 6.00 Build 0)  -->
<!DOCTYPE svg PUBLIC "-//W3C//DTD SVG 1.1//EN" "http://www.w3.org/Graphics/SVG/1.1/DTD/svg11.dtd">
<svg version="1.1" id="Layer_1" xmlns="http://www.w3.org/2000/svg" xmlns:xlink="http://www.w3.org/1999/xlink" x="0px" y="0px"
	 width="149.926px" height="44.184px" viewBox="0.074 2.908 149.926 44.184" enable-background="new 0.074 2.908 149.926 44.184"
	 xml:space="preserve">
<path fill="#FDC305" d="M44.48,20.73c-4.084-9.653-15.223-14.257-24.876-10.247C9.951,14.493,5.347,25.705,9.356,35.359
	c2.673,6.386,8.391,10.544,14.777,11.51c-0.446-1.56-0.891-3.268-1.263-5.124c1.114,0.743,2.302,1.337,3.564,1.931l0,0
	c0,0,0.074,1.634,0.223,3.416c1.337,0,2.673-0.074,3.936-0.371c0-0.148,0-0.297,0-0.594c0.223-1.412,0.817-3.862,0.891-5.496
	c0.816-0.816,1.559-1.707,2.153-2.747l0,0c0,0.074,0,0.223-0.074,0.297c-0.446,3.192-1.263,6.534-1.782,7.5
	c-0.148,0.297-0.371,0.669-0.594,0.892c1.04-0.223,2.005-0.595,3.044-0.966C43.96,41.522,48.49,30.384,44.48,20.73z M43.366,23.552
	c-0.297,0.297-0.965,0.52-1.114-0.445s-0.148-1.634-0.148-1.634s-1.411-2.524-2.005-2.599c-0.52,0-4.307,2.599-5.347,3.713
	c-0.891,0.965-1.04,0.891-1.04,2.599c0,1.263,0.148,6.09,0.074,9.729l0,0l0,0c0,0-1.634,0.445-6.015,1.633
	c-4.456,1.188-5.792,1.337-5.792,1.337l-0.742-4.308l0,0l0,0l0,0l0,0l0,0l0,0l-2.005-9.875c0,0-2.821-1.04-3.861-1.337
	c-1.04-0.297-1.708-0.52-2.97,0.446c-1.336,0.965-1.262,2.896-1.262,2.896s0.297,0.743,0.371,1.04c0,0.371-0.891,0.297-1.485,0.297
	c-0.594,0-0.668-1.04-0.223-2.302c0.446-1.263,1.411-2.748,1.411-2.748s0.891-1.708,1.56-2.153c0,0,0.074-0.223,0.965-0.149
	c0.817,0.074,5.42,0.297,5.42,0.297l0.074-1.708c4.976-0.668,10.025-1.04,15-0.965c0,0.445,0,0.891-0.074,1.336
	c0,0,3.268-1.485,6.015-1.485c0,0,0.297,0,0.594,0.297c0.223,0.297,1.782,2.228,2.005,2.525c0.148,0.297,0.891,1.262,1.336,2.228
	C44.035,22.215,43.664,23.181,43.366,23.552z"/>
<path fill="#F06351" d="M41.956,19.022c0.371,0.445,0.668,0.817,0.743,0.965c0.148,0.297,0.891,1.262,1.336,2.228
	c0,0-0.297,0.965-0.668,1.336c-0.371,0.372-0.965,0.52-1.114-0.445s-0.148-1.634-0.148-1.634s-1.411-2.524-2.005-2.599
	c-0.52,0-4.307,2.599-5.347,3.713c-0.891,0.965-1.04,0.891-1.04,2.599c0,1.113,0.148,4.9,0.074,8.316
	c1.336,0.148,3.342,0.521,3.936,1.412c0,0-0.223-5.348,5.792-2.525c0,0,0.223-7.277,8.54-5.421
	C52.129,26.968,47.896,21.77,41.956,19.022z"/>
<path fill="#F06351" d="M34.084,17.314c0.074-6.312-1.04-12.252-1.04-12.252s-0.074-0.965-0.668-0.148
	c-0.52,0.816-0.891,2.97-0.891,2.97C25.99,7.438,21.98,8.032,21.98,8.032c-0.594-2.005-1.633-2.97-2.153-2.748
	c-0.445,0.223-0.52,2.451-0.52,2.451L19.084,18.28C24.06,17.611,29.109,17.24,34.084,17.314z"/>
<path fill="#E55645" d="M33.713,37.884c0.074-0.817,0.148-1.856,0.148-3.044c0,0-1.634,0.445-6.015,1.633
	c-4.456,1.188-5.792,1.337-5.792,1.337l0.816,3.713c0,0.074,0,0.148,0.074,0.223c1.114,0.743,2.302,1.337,3.564,1.931
	c3.268-1.634,5.124-3.045,5.124-3.045s0,0,0,0.074C32.376,39.889,33.119,38.924,33.713,37.884z"/>
<path d="M23.762,14.938c0-0.074,0.743,0.52,1.04,0.668c0.297,0.148,0.446,0.297,0.446,0.445c0,0.149-0.223,0.223-0.446,0.223
	c-0.223,0-0.668-0.074-0.742-0.223c0,0,0.445,0,0.668,0h0.223C25.025,16.126,23.985,15.31,23.762,14.938z"/>
<path d="M29.332,15.012l-0.817,0.965c0,0.074-0.148,0.223,0.149,0.223c0.297,0,0.816-0.149,0.891-0.223
	c0.074-0.074,0.074-0.148-0.075-0.148c-0.148,0-0.52,0-0.742,0.074L29.332,15.012C29.406,15.012,29.406,14.938,29.332,15.012z"/>
<path d="M27.03,19.542c0,0,0.594-0.297,0.817-0.743c0.223-0.52,0-0.668-0.297-0.742c-0.297-0.074-0.965,0-1.262,0.223
	c-0.297,0.297-0.223,0.52-0.074,0.743C26.361,19.245,26.807,19.542,27.03,19.542z"/>
<path fill="#F06351" d="M26.658,20.507c0,0-0.148,0.297-0.371,0.446c-0.148,0.148-0.445,0.297-0.743,0.297
	c-0.445,0-0.817-0.148-1.114-0.297c-0.148-0.074-0.297-0.223-0.371-0.297c-0.148-0.148-0.297-0.223-0.297-0.223
	s0.594,3.044,1.931,3.564c1.337,0.52,1.634-0.594,1.634-0.817s0-1.56-0.594-2.376C26.807,20.433,26.732,20.582,26.658,20.507z"/>
<g>
	<path d="M25.47,21.324L25.47,21.324c-0.965,0-1.708-1.04-1.782-1.04c0-0.074,0-0.148,0-0.148c0.074,0,0.148,0,0.148,0
		s0.743,0.965,1.56,0.965l0,0c0.446,0,0.817-0.223,1.188-0.743l0.074-0.148l0.074,0.148c0,0,0.297,0.594,0.743,0.594
		c0.372,0,0.817-0.297,1.188-0.965c0-0.074,0.074-0.074,0.148,0c0.074,0,0.074,0.074,0,0.148c-0.446,0.743-0.965,1.114-1.411,1.04
		c-0.445,0-0.668-0.372-0.817-0.594C26.361,21.102,25.916,21.324,25.47,21.324z"/>
</g>
<ellipse fill="#FDC305" cx="26.939" cy="28.517" rx="2.822" ry="2.822"/>
<path fill="#111111" d="M30.594,26.299l-2.302,0.966l0.817-4.158l-5.569,7.277l2.302-0.966l-0.817,4.158L30.594,26.299z
	 M25.099,29.121l3.044-4.01l-0.594,2.971l1.485-0.594l-3.044,4.01l0.594-2.971L25.099,29.121z"/>
<ellipse fill="#111111" cx="24.049" cy="27.203" rx="0.817" ry="0.817"/>
<ellipse fill="#111111" cx="28.948" cy="30.448" rx="0.594" ry="0.594"/>
<ellipse fill="#111111" cx="29.63" cy="29.201" rx="0.222" ry="0.222"/>
<path fill="#F06351" d="M34.084,18.651c0,0-1.931,1.708-3.787,3.861c-1.856,2.154-3.936,3.638-3.936,3.638
	c-0.148-0.371-1.188-1.113-1.188-1.113s-2.302-1.56-3.861-2.822c-0.891-0.743-1.782-1.634-2.302-2.228
	c-0.223,0-0.817-0.074-1.485-0.074c3.49,5.198,8.911,6.535,8.911,6.535c0.668-0.075,2.451-1.411,3.787-2.451
	c1.337-1.04,3.564-3.342,4.456-4.381c0.446-0.52,0.668-1.04,0.817-1.485C34.604,18.354,34.084,18.651,34.084,18.651z"/>
<polygon fill="#FDC305" points="48.416,5.507 42.178,12.488 41.213,11.002 47.302,2.908 "/>
<polygon fill="#FDC305" points="46.485,15.755 50.644,12.636 50.049,9.889 46.04,13.453 "/>
<polygon fill="#FDC305" points="44.48,39.592 49.084,41.968 51.312,40.186 46.336,38.181 "/>
<polygon fill="#FDC305" points="1.485,7.364 3.713,4.839 10.619,11.522 9.728,13.23 "/>
<polygon fill="#FDC305" points="5.495,15.012 2.005,12.71 0.223,15.532 4.01,17.314 "/>
<polygon fill="#FDC305" points="10.322,41.968 6.98,44.418 9.06,47.092 12.03,44.121 "/>
<path fill="#F06351" d="M19.232,23.701c0,0-2.821-1.04-3.861-1.337c-1.04-0.297-1.708-0.52-2.97,0.446
	c-1.336,0.965-1.262,2.896-1.262,2.896s0.297,0.743,0.371,1.04c0,0.371-0.891,0.297-1.485,0.297c-0.594,0-0.668-1.04-0.223-2.302
	c0.446-1.263,1.411-2.748,1.411-2.748c-4.01,2.079-11.139,6.98-11.139,6.98s2.153-0.223,6.089,0.148
	c3.936,0.371,3.713,3.49,3.713,3.49s2.599-0.742,4.158-0.816s1.708,1.559,1.708,1.559l0.371,2.896c0,0,0.372-0.445,2.005-1.782
	c1.411-1.114,2.896-1.04,3.268-0.966l0,0L19.232,23.701z"/>
<g>
	<path fill="#111111" d="M63.639,34.097c-0.668-0.892-1.04-2.153-1.04-3.861v-5.569c0-1.708,0.371-3.045,1.04-3.862
		c0.668-0.891,1.856-1.336,3.564-1.336c1.559,0,2.748,0.372,3.341,1.188c0.668,0.743,0.965,1.856,0.965,3.342v1.336h-3.044v-1.411
		c0-0.446,0-0.817-0.074-1.114c-0.074-0.297-0.148-0.52-0.371-0.668c-0.149-0.148-0.446-0.297-0.891-0.297
		c-0.594,0-0.965,0.223-1.114,0.594c-0.148,0.372-0.223,0.891-0.223,1.634v7.055c0,0.742,0.074,1.262,0.297,1.633
		c0.223,0.371,0.52,0.52,1.04,0.52c0.52,0,0.891-0.148,1.04-0.52s0.223-0.891,0.223-1.633v-1.486h3.044v1.263
		c0,1.485-0.297,2.673-0.965,3.416c-0.668,0.817-1.782,1.188-3.416,1.188C65.495,35.434,64.307,34.988,63.639,34.097z"/>
	<path fill="#111111" d="M75.668,19.69h3.49l2.971,15.595h-2.896l-0.594-3.416h-2.451l-0.594,3.416h-2.97L75.668,19.69z
		 M78.416,29.863l-0.965-6.237l-0.892,6.237H78.416z"/>
	<path fill="#111111" d="M84.431,21.993h-2.376v-2.376H90v2.376h-2.376v13.218h-3.193V21.993z"/>
	<path fill="#444444" d="M96.238,19.69h6.014v1.634h-3.861v5.124h3.119v1.56h-3.119v5.717h3.936v1.561h-6.088V19.69L96.238,19.69z"
		/>
	<path fill="#444444" d="M104.035,19.69h1.484l4.455,10.321V19.69h1.783v15.595h-1.411l-4.456-10.619v10.619h-1.855V19.69z"/>
	<path fill="#444444" d="M114.208,19.69h6.015v1.634h-3.861v5.124h3.119v1.56h-3.119v5.717h3.936v1.561h-6.089V19.69z"/>
	<path fill="#444444" d="M122.079,19.69h3.119c1.56,0,2.747,0.297,3.489,0.965c0.743,0.668,1.114,1.708,1.114,3.193
		c0,2.004-0.668,3.193-1.931,3.639l2.229,7.797h-2.08l-2.005-7.277h-1.708v7.277h-2.153V19.69H122.079z M125.049,26.373
		c0.966,0,1.635-0.148,2.006-0.594c0.371-0.371,0.594-1.039,0.594-2.004c0-0.668-0.074-1.114-0.223-1.485s-0.371-0.668-0.742-0.817
		s-0.892-0.223-1.485-0.223h-0.966v5.123H125.049z"/>
	<path fill="#444444" d="M132.698,34.097c-0.595-0.892-0.966-2.228-0.966-3.937v-5.197c0-1.188,0.148-2.228,0.371-2.97
		s0.669-1.337,1.263-1.782c0.595-0.446,1.411-0.594,2.524-0.594c1.411,0,2.451,0.372,3.119,1.114
		c0.668,0.743,0.965,1.856,0.965,3.416v0.594h-2.004v-0.446c0-0.743-0.074-1.336-0.148-1.708c-0.074-0.371-0.297-0.742-0.595-0.891
		c-0.297-0.223-0.742-0.297-1.263-0.297c-0.594,0-1.039,0.148-1.336,0.446c-0.297,0.297-0.52,0.668-0.594,1.114
		c-0.074,0.445-0.148,1.04-0.148,1.856v5.569c0,1.188,0.148,2.079,0.445,2.599s0.816,0.742,1.633,0.742
		c0.817,0,1.337-0.297,1.635-0.816c0.297-0.594,0.445-1.484,0.445-2.673v-1.04h-2.006v-1.559h3.936v7.723h-1.336l-0.223-1.783
		c-0.52,1.338-1.411,2.006-2.748,2.006C134.332,35.434,133.292,34.988,132.698,34.097z"/>
	<path fill="#444444" d="M144.579,29.715l-3.341-10.099h2.004l2.377,7.5l2.376-7.5H150l-3.342,10.099v5.496h-2.079V29.715
		L144.579,29.715z"/>
</g>
</svg>
